<svg version="1.1" xmlns="http://www.w3.org/2000/svg" xmlns:xlink="http://www.w3.org/1999/xlink" x="0px" y="0px" viewBox="0 0 1000 1000" enable-background="new 0 0 1000 1000" xml:space="preserve">
<g><g transform="translate(0.000000,512.000000) scale(0.100000,-0.100000)"><path style="fill: #FFFFFF;" d="M536.3,4991.1c-134-51.7-256.6-147.4-323.6-248.9C-5.5,4395.7,117,3970.6,477,3836.6c84.2-30.6,149.3-38.3,356.1-38.3c2083.1-1.9,4309.7-867.3,5623.1-2184.5c1068.3-1074.1,1895.4-2854.7,2142.4-4618c44-304.4,88.1-986,70.8-1074.1c-15.3-76.6,21.1-289.1,65.1-377.2c59.3-116.8,147.4-202.9,258.5-256.6c344.6-168.5,765.8,19.1,882.6,392.5c30.6,95.7,30.6,141.7,9.6,536.1c-147.4,2757-886.4,4656.3-2429.6,6243.5C6180.5,3773.5,4725.4,4508.6,2751.5,4839.9c-501.6,84.2-1227.2,155.1-1799.7,174.2C668.4,5023.7,614.8,5019.8,536.3,4991.1z"/><path style="fill: #FFFFFF;" d="M559.3,2383.5c-174.2-57.4-333.1-199.1-405.9-361.9c-63.2-139.8-59.3-381,5.7-522.7c90-191.5,250.8-327.4,448-377.2c42.1-11.5,235.5-30.6,430.8-42.1c1313.4-80.4,2245.8-340.8,2992.5-836.7c1179.4-781.2,1795.9-2096.5,1928-4112.5c11.5-178,30.6-359.9,42.1-402.1c49.8-197.2,185.7-358,377.2-448c143.6-67,384.8-70.8,522.7-7.6c120.6,55.5,256.5,185.7,317.8,302.5c63.2,122.5,74.7,323.6,44,760.1c-118.7,1688.7-471,2783.8-1215.8,3777.5c-193.4,258.5-752.4,832.8-997.5,1024.3c-903.7,710.3-1920.3,1072.2-3408,1215.8C1275.3,2387.3,626.3,2406.4,559.3,2383.5z"/><path style="fill: #FFFFFF;" d="M559.3-230c-114.9-30.6-208.7-90-296.8-185.7C149.6-542,113.2-645.4,111.3-844.5c-1.9-147.4,5.7-187.6,47.9-279.5c67-141.7,183.8-256.5,331.2-325.5c111-51.7,143.6-57.4,469.1-74.7c897.9-49.8,1298.1-183.8,1679.1-568.6c480.6-482.5,681.6-993.7,735.2-1861c19.1-329.3,30.6-377.2,109.1-520.8c189.5-352.3,685.4-404,963-101.5c168.5,183.8,193.4,333.1,155.1,947.7c-76.6,1213.9-354.2,1918.4-1003.2,2536.8c-591.6,566.7-1236.8,783.1-2588.5,869.2C649.3-199.3,668.4-199.3,559.3-230z"/><path style="fill: #FFFFFF;" d="M961.3-2826.1c-335-42.1-612.7-243.2-758.2-545.7C15.5-3764.3,86.4-4174,394.6-4484.1c310.2-308.3,719.9-379.1,1112.4-191.4c338.9,160.8,545.7,488.2,547.6,863.5c0,193.4-26.8,308.2-111.1,472.9C1761.6-2990.8,1353.8-2776.4,961.3-2826.1z"/></g></g>
</svg>